<?xml version="1.0" encoding="UTF-8"?>
<svg version="1.1" xmlns="http://www.w3.org/2000/svg" width="1080" height="1080">
<path d="M0 0 C356.4 0 712.8 0 1080 0 C1080 356.4 1080 712.8 1080 1080 C723.6 1080 367.2 1080 0 1080 C0 723.6 0 367.2 0 0 Z " fill="#38B5FE" transform="translate(0,0)"/>
<path d="M0 0 C4.1480704 1.63923746 6.98248618 4.63851092 10.0625 7.75 C10.92294922 8.61782104 10.92294922 8.61782104 11.80078125 9.50317383 C17.74424207 15.60689113 22.93052377 22.16550572 28 29 C28.515625 29.68723145 29.03125 30.37446289 29.5625 31.08251953 C37.73218815 41.99916713 45.15567078 53.20975196 52 65 C52.52142578 65.89477051 53.04285156 66.78954102 53.58007812 67.71142578 C88.56133699 128.08197494 115.117698 194.1824277 135 261 C135.37640625 262.26328125 135.7528125 263.5265625 136.140625 264.828125 C137.21521206 268.45021705 138.2739928 272.07678198 139.32910156 275.70458984 C139.99066814 277.96807201 140.66284739 280.22820292 141.3359375 282.48828125 C151.36704031 316.5152175 158.96940425 351.25037763 166 386 C166.23251465 387.1358252 166.4650293 388.27165039 166.70458984 389.44189453 C169.44693801 402.88273771 171.64402254 416.25869327 173.26171875 429.87890625 C174.06045964 436.57587333 174.92867229 443.25976527 175.875 449.9375 C176.08104858 451.5452832 176.08104858 451.5452832 176.29125977 453.18554688 C177.43119619 461.00154846 179.52645887 467.45698805 185.1484375 473.19140625 C197.48145432 480.78594819 211.12634098 476.53189384 224.41967773 473.93164062 C260.90134251 466.9309904 300.98471473 467.76767767 337.21337891 475.71411133 C348.73287979 478.14444209 359.33185617 478.63655208 369.6875 472.375 C376.57816587 465.29809991 377.23894286 455.1655554 378.5625 445.8125 C378.77771199 444.36531501 378.99403392 442.91829468 379.21142578 441.47143555 C380.23755634 434.58440953 381.18287105 427.68867657 382.05957031 420.78100586 C385.23805514 395.90665596 390.42357748 371.20418575 396.31347656 346.84472656 C396.97727719 344.09415582 397.62777836 341.34081698 398.2734375 338.5859375 C399.49460097 333.3854738 400.74233711 328.19174545 402 323 C402.23187012 322.03852051 402.46374023 321.07704102 402.70263672 320.08642578 C405.64999003 307.90915106 408.83025458 295.85759235 412.515625 283.8828125 C413.75661754 279.8423342 414.91330961 275.78342899 416.04589844 271.71142578 C438.41659514 191.52132089 470.62831524 101.97947261 525.68408203 29.67333984 C526.98252976 28.0222154 528.22912252 26.3429653 529.46484375 24.64453125 C534.03569459 18.40542602 538.96631712 12.71099313 544.375 7.1875 C544.97038574 6.56987793 545.56577148 5.95225586 546.17919922 5.31591797 C546.74654785 4.75146973 547.31389648 4.18702148 547.8984375 3.60546875 C548.40036621 3.10168701 548.90229492 2.59790527 549.41943359 2.07885742 C551 1 551 1 555 1 C572.58838904 36.62463057 583.9294601 74.13637577 589.25 113.5 C589.41314697 114.70301758 589.57629395 115.90603516 589.74438477 117.14550781 C591.83800673 133.45325188 592.20591437 149.64540429 592.1875 166.0625 C592.18659363 167.55858795 592.18659363 167.55858795 592.18566895 169.0848999 C592.16199577 183.48078688 591.93022064 197.71377637 590 212 C589.86577637 213.02512695 589.73155273 214.05025391 589.59326172 215.10644531 C588.67914013 221.96387569 587.65218483 228.79774248 586.54443359 235.62646484 C586.19370976 237.7996944 585.85216608 239.97443543 585.52197266 242.15087891 C578.09748531 290.79858198 560.06190308 338.15916885 538.41992188 382.10449219 C537.12172469 384.75177874 535.84624507 387.40852635 534.578125 390.0703125 C521.24444618 417.77625818 504.32631209 444.34642833 486 469 C485.19852539 470.08812988 485.19852539 470.08812988 484.38085938 471.19824219 C482.63916351 473.5566665 480.88433444 475.90471149 479.125 478.25 C478.5769873 478.99040527 478.02897461 479.73081055 477.46435547 480.49365234 C476.94244629 481.18152832 476.42053711 481.8694043 475.8828125 482.578125 C475.42277832 483.19075195 474.96274414 483.80337891 474.48876953 484.43457031 C472.81381877 486.19576813 471.2178695 487.04191846 469 488 C468.18917969 487.35933594 467.37835937 486.71867187 466.54296875 486.05859375 C453.37051436 475.73780476 443.32718434 468.06862595 426 470 C419.70807917 472.01016955 416.34528259 476.52590122 413 482 C410.90170831 488.29487508 411.05096581 495.58922809 413.5625 501.75 C417.19091499 508.73345624 422.86186888 513.87469993 428.39282227 519.35009766 C429.37400024 520.32148682 429.37400024 520.32148682 430.375 521.3125 C431.03491943 521.96524902 431.69483887 522.61799805 432.37475586 523.29052734 C437.67789456 528.5785424 442.37365022 534.10786666 447 540 C447.69996094 540.82113281 448.39992188 541.64226563 449.12109375 542.48828125 C460.11781287 555.40599586 469.17364825 569.97577066 477 585 C477.3398291 585.65226563 477.6796582 586.30453125 478.02978516 586.9765625 C488.19181351 606.8049105 495.87345616 628.93725689 498.60546875 651.07421875 C498.91495531 653.84976409 498.91495531 653.84976409 499.5145874 655.89694214 C500.0424891 658.18408469 500.14084231 660.22846005 500.16113281 662.57470703 C500.17074036 663.47730255 500.1803479 664.37989807 500.19024658 665.30984497 C500.19449646 666.28267426 500.19874634 667.25550354 500.203125 668.2578125 C500.20882507 669.27487274 500.21452515 670.29193298 500.22039795 671.33981323 C500.2298476 673.50013187 500.23638179 675.66046491 500.24023438 677.82080078 C500.2498209 681.06440058 500.28079377 684.30733339 500.3125 687.55078125 C500.36401854 697.20420733 500.23741591 706.74342123 498.796875 716.3046875 C498.69691223 717.03390411 498.59694946 717.76312073 498.49395752 718.51443481 C497.86614329 722.07566795 497.17296925 723.82984665 494.57055664 726.38989258 C485.70361484 731.94383703 475.08540199 734.70049006 465.125 737.625 C464.18229248 737.90190674 463.23958496 738.17881348 462.26831055 738.46411133 C448.42060443 742.42310946 434.37408087 745.5344589 420.1875 748 C419.46985474 748.12595551 418.75220947 748.25191101 418.01281738 748.38168335 C400.00027866 751.49773215 381.82106855 753.01649978 363.60768127 754.43000793 C359.03845889 754.79190728 354.53655803 755.32794307 350 756 C347.1082439 756.27157642 344.21321924 756.41758307 341.3125 756.5625 C340.47686523 756.6049585 339.64123047 756.64741699 338.78027344 756.69116211 C326.52892025 757.23892412 314.26000367 757.0794957 302 757 C302 753.04 302 749.08 302 745 C302.9178125 744.63648438 303.835625 744.27296875 304.78125 743.8984375 C315.22397356 739.66555487 323.87500516 735.62347109 329 725 C331.3453331 718.85746092 332.26739272 712.7962833 330.16015625 706.484375 C324.70027367 694.49837014 314.63068115 687.44862629 302.625 682.75 C285.25017791 676.93415997 264.34938244 676.4627478 247.69921875 684.5859375 C235.82363061 690.80730205 227.24382461 696.7239646 223 710 C221.49199297 717.97656348 224.61820497 724.96926995 228.625 731.75 C235.19023371 737.96969509 243.8131533 741.43137452 252 745 C252 748.96 252 752.92 252 757 C229.85725147 757.41231325 208.10435878 756.38564786 186.0546875 754.3671875 C182.75684448 754.06551371 179.45774656 753.79037909 176.15625 753.53125 C84.6118469 746.07526657 84.6118469 746.07526657 58.92114258 725.32055664 C50.90726898 715.64056318 53.40408412 695.09581711 53.4375 683.3125 C53.43831573 682.23007019 53.43913147 681.14764038 53.43997192 680.03240967 C53.50140637 662.27277534 54.89058933 646.09330115 60 629 C60.49016602 627.2984375 60.49016602 627.2984375 60.99023438 625.5625 C70.82647068 591.98814676 87.77837758 560.07343237 111.76953125 534.40625 C113.65051759 532.3770248 115.4531369 530.31047317 117.25390625 528.2109375 C119.73057486 525.36702387 122.28892113 522.68343464 125.0078125 520.0703125 C126.02294922 519.09384766 126.02294922 519.09384766 127.05859375 518.09765625 C128.43640652 516.78235294 129.82187231 515.47502003 131.21484375 514.17578125 C137.03005873 508.5384696 141.19104608 502.55225001 142.62890625 494.4609375 C142.46194993 486.70237895 141.76469903 480.98306904 136.31640625 475.21875 C129.89016793 469.35912624 123.36306667 469.4740193 114.96484375 469.67578125 C109.39497476 470.13124837 106.35113695 471.6197779 102 475 C101.43974121 475.4237793 100.87948242 475.84755859 100.30224609 476.28417969 C92.87643189 481.82214663 92.87643189 481.82214663 86 488 C84.1875 488 84.1875 488 82 487 C80.18143631 485.0378655 78.59594914 483.13111079 77 481 C76.52216064 480.37552979 76.04432129 479.75105957 75.55200195 479.10766602 C54.96586459 451.97306798 36.85376642 423.12717322 21 393 C20.47792969 392.00790527 19.95585937 391.01581055 19.41796875 389.99365234 C0.90964705 354.53625623 -13.85638459 316.70919644 -24 278 C-24.38164307 276.55923096 -24.38164307 276.55923096 -24.77099609 275.08935547 C-40.06192091 216.29521759 -44.43964417 150.77347799 -31.45556641 91.15039062 C-31.03945625 89.18624367 -30.67886338 87.21054506 -30.32421875 85.234375 C-26.04192474 61.3796329 -17.51518855 17.51518855 0 0 Z " fill="#FEFEFE" transform="translate(252,162)"/>
<path d="M0 0 C18.73824176 10.06653094 35.36925129 26.04432566 48 43 C48.39864258 43.52754883 48.79728516 44.05509766 49.20800781 44.59863281 C69.69751847 71.73838284 86.05792542 101.02507562 101.56787109 131.21484375 C102.74331381 133.5008053 103.92659866 135.78236996 105.11328125 138.0625 C131.7561766 189.74228305 153.13032023 246.18428591 168.6328125 302.1796875 C170.00452989 307.09915581 171.55396921 311.9536874 173.125 316.8125 C175.34798436 323.72141006 177.26800294 330.64245049 178.9453125 337.703125 C179.80662945 341.30532198 180.77947581 344.87215085 181.75390625 348.4453125 C184.71762514 359.43680531 187.25016429 370.53455762 189.8125 381.625 C190.07634491 382.76540741 190.34018982 383.90581482 190.61203003 385.08078003 C197.37111497 414.38567976 203.83656763 444.05513883 207 474 C207.97831787 473.87882812 208.95663574 473.75765625 209.96459961 473.6328125 C244.67686608 469.3947257 283.73181631 465.32661816 318 475 C317.95101563 473.83597656 317.90203125 472.67195313 317.8515625 471.47265625 C317.86535899 464.366085 319.18123724 457.42057121 320.375 450.4375 C320.50460114 449.67001434 320.63420227 448.90252869 320.76773071 448.11178589 C328.27738984 403.87923536 337.45598813 359.1529082 351.24121094 316.41699219 C352.5710723 312.18094731 353.74366786 307.90093735 354.9375 303.625 C358.31977024 291.6512449 362.09637588 279.8130524 366 268 C366.36577148 266.89188965 366.73154297 265.7837793 367.10839844 264.64208984 C376.98688426 234.91729207 388.38378739 205.66869946 401 177 C401.40191559 176.08658844 401.40191559 176.08658844 401.81195068 175.15472412 C415.27441415 144.61085539 429.59417065 114.5170094 447 86 C447.865979 84.55995211 448.73187118 83.119852 449.59765625 81.6796875 C458.39596429 67.1966723 468.03721195 52.93315531 479 40 C479.9205881 38.89454389 480.84115969 37.78907404 481.76171875 36.68359375 C493.69641922 22.45189473 506.27058426 9.45314895 522.75 0.5625 C523.33942383 0.24450439 523.92884766 -0.07349121 524.53613281 -0.40112305 C532.35233892 -4.42952545 539.6772348 -6.56886497 548.5 -6.5 C549.33152588 -6.49572998 550.16305176 -6.49145996 551.01977539 -6.48706055 C557.24938904 -6.31379463 562.30351348 -5.39278762 567 -1 C570.50614364 2.95148044 573.02856347 7.27214887 575.5625 11.875 C575.99232178 12.65528564 576.42214355 13.43557129 576.86499023 14.23950195 C585.80538707 30.6901546 593.45054174 47.63421804 599.95458984 65.18652344 C600.6325789 67.01117217 601.31986083 68.83240522 602.01806641 70.64941406 C609.17010304 89.27748804 613.61479561 108.57523141 618 128 C618.23734863 129.03898438 618.47469727 130.07796875 618.71923828 131.1484375 C620.04650878 137.06960501 621.08049221 143.00316537 622 149 C622.17901855 150.07846191 622.35803711 151.15692383 622.54248047 152.26806641 C629.1456505 193.29687735 628.46322379 237.86988313 623 279 C622.8303945 280.37626413 622.66248129 281.75273766 622.49609375 283.12939453 C618.71719448 314.22300685 612.72972836 345.19136881 603 375 C602.69319305 375.94495331 602.69319305 375.94495331 602.38018799 376.90899658 C595.51694352 398.01843268 587.89540818 418.65567823 579 439 C578.5373877 440.06283203 578.07477539 441.12566406 577.59814453 442.22070312 C571.56874006 455.97896082 564.88313058 469.25946624 557.49853516 482.33837891 C556.02819755 484.94991697 554.58081287 487.57309767 553.13671875 490.19921875 C538.67492806 516.26781985 521.44161333 541.55319541 502.30078125 564.44140625 C501.66188965 565.20710937 501.02299805 565.9728125 500.36474609 566.76171875 C499.10236905 568.2687673 497.83338289 569.77031002 496.55712891 571.265625 C495.9801123 571.95269531 495.4030957 572.63976562 494.80859375 573.34765625 C494.29095459 573.95617432 493.77331543 574.56469238 493.23999023 575.19165039 C491.84260347 577.22954048 491.22162399 578.53421262 491 581 C491.83086188 583.21440028 491.83086188 583.21440028 493.24609375 585.421875 C493.74987549 586.27434814 494.25365723 587.12682129 494.77270508 588.00512695 C495.3220874 588.91093506 495.87146973 589.81674316 496.4375 590.75 C497.55785601 592.65308615 498.67502412 594.55805248 499.7890625 596.46484375 C500.33981445 597.40569824 500.89056641 598.34655273 501.45800781 599.31591797 C504.94777041 605.39040341 508.01925134 611.66346319 511 618 C511.29712891 618.62616211 511.59425781 619.25232422 511.90039062 619.89746094 C518.31536063 633.54499517 523.4295264 647.73416984 526.71484375 662.4609375 C527.00359375 663.73098633 527.29234375 665.00103516 527.58984375 666.30957031 C528.1464782 668.81506661 528.67228659 671.3276501 529.1640625 673.84667969 C529.41800781 674.99297852 529.67195312 676.13927734 529.93359375 677.3203125 C530.14040771 678.34398926 530.34722168 679.36766602 530.56030273 680.42236328 C532.45085379 683.80720949 534.19291134 684.25319165 537.79277039 685.37966919 C538.52115616 685.58437836 539.24954193 685.78908752 540 686 C541.31210315 686.41191459 542.62419641 686.82386072 543.9362793 687.23583984 C545.31508277 687.64592331 546.69441967 688.05421649 548.07421875 688.4609375 C576.83494423 697.11076531 608.13827455 706.65267752 631 727 C631.79277344 727.69867187 632.58554687 728.39734375 633.40234375 729.1171875 C640.66565025 735.90916462 646.09969919 742.76221399 646.60668945 753.02124023 C646.7038267 764.1816626 643.10991398 771.60683326 636 780 C635.53335938 780.56203125 635.06671875 781.1240625 634.5859375 781.703125 C619.77232312 797.96011719 596.21692712 806.76275555 576.06982422 813.90917969 C573.09349363 814.96677831 570.12653354 816.04766249 567.16015625 817.1328125 C533.5098604 829.3124354 497.39243516 836.79311316 461.96899414 841.66210938 C459.79642287 841.98384911 459.79642287 841.98384911 457 843 C455.27134407 843.25925409 453.53715693 843.48243837 451.80078125 843.68359375 C450.75470703 843.80669922 449.70863281 843.92980469 448.63085938 844.05664062 C447.53580078 844.18232422 446.44074219 844.30800781 445.3125 844.4375 C443.18353863 844.6857256 441.05463321 844.93443157 438.92578125 845.18359375 C437.25092651 845.37852417 437.25092651 845.37852417 435.54223633 845.57739258 C431.80657664 846.02307642 428.07546344 846.49902041 424.34375 846.9765625 C415.30718313 848.11890217 406.2524401 849.05189124 397.1875 849.9375 C396.31770508 850.02270905 395.44791016 850.10791809 394.55175781 850.19570923 C380.54813977 851.55729519 366.53501269 852.70335438 352.5 853.6875 C351.22423599 853.7783638 351.22423599 853.7783638 349.92269897 853.87106323 C343.95083783 854.29246575 337.97718579 854.66281973 332 855 C330.72068604 855.07468506 330.72068604 855.07468506 329.41552734 855.15087891 C308.68866599 856.31324037 287.93220413 856.15351046 267.18066406 856.13037109 C262.0341444 856.12467421 256.88767639 856.12806867 251.74115849 856.13379765 C210.05309526 856.17357434 210.05309526 856.17357434 190 855 C188.46536102 854.91329041 188.46536102 854.91329041 186.89971924 854.8248291 C179.11646854 854.37823828 171.33899075 853.86381278 163.5625 853.3125 C161.76525482 853.18520004 161.76525482 853.18520004 159.93170166 853.05532837 C135.4995104 851.29632801 111.22671001 848.68220563 86.95471191 845.39849854 C84.04833795 845.00651928 81.14099647 844.6225268 78.23339844 844.23974609 C22.39090312 836.82368163 -35.95640947 826.01669921 -86 799 C-87.04929688 798.45085938 -88.09859375 797.90171875 -89.1796875 797.3359375 C-102.5324639 790.01792238 -114.63658792 780.02843117 -121 766 C-121.35964844 765.34644531 -121.71929687 764.69289063 -122.08984375 764.01953125 C-124.70754497 758.21115559 -122.9641506 751.26240943 -121.03125 745.47265625 C-111.44657317 722.49121521 -83.61182394 710.12541961 -62 701 C-50.57723602 696.4572775 -38.98962883 692.40942623 -27.125 689.1875 C-26.40086914 688.9822168 -25.67673828 688.77693359 -24.93066406 688.56542969 C-21.82629078 687.69690115 -18.82742167 686.97700289 -15.62890625 686.55078125 C-12.18991615 685.90682693 -10.55070304 685.4236385 -8 683 C-5.92316754 678.282335 -5.16611673 673.1382972 -4.21875 668.1015625 C1.03222892 640.23720689 13.53959508 612.11838671 28.72851562 588.28808594 C29.28732422 587.40668945 29.84613281 586.52529297 30.421875 585.6171875 C30.9384668 584.82683105 31.45505859 584.03647461 31.98730469 583.22216797 C33.18381593 581.08422346 33.18381593 581.08422346 32.80493164 578.89208984 C31.44201136 575.68837974 28.99637708 573.3043188 26.6875 570.75 C20.00371454 563.14973564 13.97000729 555.16602319 8 547 C7.46729492 546.2776416 6.93458984 545.5552832 6.38574219 544.81103516 C-7.49834016 525.98131563 -19.93889254 506.36955231 -31.19946289 485.86743164 C-31.5783667 485.17770264 -31.95727051 484.48797363 -32.34765625 483.77734375 C-32.75306641 483.0387915 -33.15847656 482.30023926 -33.57617188 481.53930664 C-34.64033015 479.64144823 -35.72905152 477.75732507 -36.83007812 475.88061523 C-41.90316942 467.20344372 -46.27211779 458.35938244 -50.375 449.1875 C-50.69804108 448.46946198 -51.02108215 447.75142395 -51.35391235 447.0116272 C-66.18982089 414.00567824 -78.24901969 380.12671933 -87 345 C-87.37719818 343.53765564 -87.75476481 342.07540623 -88.1328125 340.61328125 C-98.2477476 300.53587572 -102.39390186 259.0993518 -102.43434906 217.86669159 C-102.43744357 215.8492893 -102.44635938 213.83189864 -102.4553833 211.81451416 C-102.52700663 188.18065086 -100.69830885 164.91480195 -96.625 141.625 C-96.41004883 140.3779126 -96.19509766 139.1308252 -95.97363281 137.84594727 C-88.6500766 96.21126293 -74.1885371 27.57773196 -41.2734375 -2.58203125 C-28.84674526 -10.63636881 -12.22955171 -6.26831799 0 0 Z M-15 50 C-24.49251964 67.79184547 -32.17789805 86.69179281 -38 106 C-38.19899902 106.65355469 -38.39799805 107.30710938 -38.60302734 107.98046875 C-48.91791482 142.20823546 -53.45779248 178.05699783 -53.3125 213.75 C-53.31034485 214.7173407 -53.3081897 215.6846814 -53.30596924 216.68133545 C-53.01341809 299.36170097 -28.37860776 378.42745114 25 477 C25.50982422 477.83772949 26.01964844 478.67545898 26.54492188 479.53857422 C39.01753117 499.94645541 52.92629435 519.43510912 68 538 C72.22534204 537.46806858 74.55721723 535.04996297 77.6875 532.3125 C85.95346002 525.21451467 92.49812431 519.83213048 103.75 519.75 C104.78640625 519.7190625 104.78640625 519.7190625 105.84375 519.6875 C111.68890681 519.64355145 116.35522592 520.7361163 120.92578125 524.6484375 C121.38339844 525.21820312 121.84101563 525.78796875 122.3125 526.375 C122.78300781 526.93960937 123.25351562 527.50421875 123.73828125 528.0859375 C126.5398584 532.3360081 127.33279152 536.13069617 127.4375 541.1875 C127.47746094 542.23292969 127.51742187 543.27835938 127.55859375 544.35546875 C125.90995717 555.11195777 118.86333888 561.73825989 111.25 568.9375 C103.94834181 575.9373959 97.25913896 583.05037337 91 591 C90.04840172 592.15857923 89.0944362 593.31522392 88.13671875 594.46875 C68.51582295 618.75234672 54.55029731 646.61795099 45.75 676.5 C45.52787842 677.24443359 45.30575684 677.98886719 45.0769043 678.75585938 C44.31077938 681.49026571 43.64518367 684.23424791 43 687 C42.83450653 687.69709076 42.66901306 688.39418152 42.49850464 689.11239624 C39.35565525 702.68177857 38.39473682 715.73170128 38.53344727 729.64038086 C38.56264045 732.82783499 38.5539463 736.01363814 38.54101562 739.20117188 C37.69803326 758.20319293 37.69803326 758.20319293 43.89746094 775.31201172 C46.77924143 777.62560094 49.93063401 779.02403162 53.3125 780.4375 C54.02398193 780.73970459 54.73546387 781.04190918 55.46850586 781.35327148 C62.52130796 784.29864668 69.66693517 786.84129224 77 789 C77.81791016 789.24105469 78.63582031 789.48210938 79.47851562 789.73046875 C93.68927174 793.83834689 107.90002749 796.53248356 122.54736328 798.52783203 C126.07462305 799.01020513 129.59769795 799.51757381 133.12109375 800.02734375 C152.02755806 802.7097283 170.9657796 804.53121764 190 806 C191.23451904 806.09933838 192.46903809 806.19867676 193.7409668 806.30102539 C203.15699172 807.00538104 212.50326516 807.11970335 221.9375 807.0625 C223.41080574 807.057465 224.88411318 807.0529057 226.35742188 807.04882812 C229.9049844 807.03800377 233.45248052 807.02085455 237 807 C237 803.04 237 799.08 237 795 C235.83082031 794.48050781 234.66164063 793.96101562 233.45703125 793.42578125 C231.9085865 792.72194273 230.36042418 792.01748264 228.8125 791.3125 C228.04357422 790.97283203 227.27464844 790.63316406 226.48242188 790.28320312 C221.78475143 788.12590382 218.46496337 785.95252857 215 782 C214.29875 781.236875 213.5975 780.47375 212.875 779.6875 C209.23447787 774.46941827 207.27942297 768.90311464 207.5234375 762.4921875 C209.38516587 752.75626375 215.34274759 745.10328541 223.17578125 739.421875 C239.69535678 728.7152434 260.10443557 726.47383879 279.203125 730.24609375 C291.86829856 733.6600302 305.18184733 740.11033527 312.5390625 751.3515625 C316.28211149 758.1057794 317.25737942 763.37258844 315.23046875 770.83203125 C311.77233881 781.12375661 306.36481345 785.80689714 297 791 C293.69936154 792.49909476 290.41260769 793.76354794 287 795 C287 798.96 287 802.92 287 807 C291.25004614 807.02755794 295.49990513 807.04710111 299.75 807.0625 C300.91789062 807.07087891 302.08578125 807.07925781 303.2890625 807.08789062 C320.52478682 807.13422322 337.61609139 805.90858866 354.75 804.125 C355.61774048 804.03596405 356.48548096 803.9469281 357.3795166 803.85519409 C363.25470403 803.25231916 369.12794531 802.63262557 375 802 C376.22460938 801.86835449 377.44921875 801.73670898 378.7109375 801.60107422 C403.65636846 798.85662381 428.00029649 794.39737975 452 787 C452.77746582 786.76249023 453.55493164 786.52498047 454.35595703 786.28027344 C469.23029723 782.11277158 469.23029723 782.11277158 482 774 C482.81266885 771.36031062 483.33432363 769.05831119 483.73046875 766.3515625 C483.91321602 765.17347519 483.91321602 765.17347519 484.09965515 763.97158813 C485.45644991 754.21080484 485.41414916 744.40974888 485.33618164 734.57373047 C485.31227403 731.34447815 485.31568711 728.1160391 485.32226562 724.88671875 C485.31669645 722.80728679 485.30959139 720.72785825 485.30078125 718.6484375 C485.30169266 717.69625336 485.30260406 716.74406921 485.30354309 715.76303101 C485.24440894 710.16543535 484.54070439 705.38172677 483 700 C482.83015425 698.48352005 482.69798269 696.96171539 482.625 695.4375 C478.8665921 654.64953227 453.29195393 612.50555476 425.953125 583.1015625 C424.19928358 581.21442913 422.53451702 579.28212878 420.875 577.3125 C418.49684082 574.55203627 415.98365837 571.98507937 413.37109375 569.44921875 C412.70674316 568.80106201 412.04239258 568.15290527 411.35791016 567.48510742 C410.02419591 566.19071371 408.6817665 564.90522188 407.32958984 563.63012695 C400.81981377 557.30818104 396.91182366 550.53338291 396.6875 541.3125 C396.75763574 534.8600123 397.94601563 530.19280184 402.4609375 525.47265625 C409.05147741 519.70175201 415.16478345 519.24139049 423.60546875 519.50390625 C434.04648628 520.31292263 441.91699033 528.29710699 449.40625 534.9609375 C451.86915311 536.89713543 453.04864219 537.4017306 456 538 C460.93297092 532.53373492 465.47219424 526.88319152 469.8125 520.9375 C470.4214209 520.10605469 471.0303418 519.27460937 471.65771484 518.41796875 C476.99590437 511.0848119 482.08572737 503.62217607 487 496 C487.4448877 495.31599121 487.88977539 494.63198242 488.34814453 493.92724609 C509.39126598 461.51104477 528.16745995 427.14197392 542 391 C542.65790527 389.2974707 542.65790527 389.2974707 543.32910156 387.56054688 C550.47022479 368.96667884 556.64629416 350.19035304 562 331 C562.19973419 330.29335205 562.39946838 329.5867041 562.60525513 328.85864258 C565.84567304 317.32924468 568.31502099 305.79900596 570.25805664 293.98339844 C570.68875764 291.36736119 571.13337903 288.75397329 571.58007812 286.140625 C575.47537648 263.09991223 577.21142526 240.36313938 577.1875 217 C577.18722809 216.00143982 577.18695618 215.00287964 577.18667603 213.97406006 C577.16969128 200.41697536 577.00542814 186.96828508 575.31201172 173.49853516 C574.97990402 170.83907493 574.6941435 168.17672227 574.41015625 165.51171875 C571.54090127 139.91999336 565.17624719 115.36865269 557 91 C556.5982959 89.79512939 556.5982959 89.79512939 556.18847656 88.56591797 C551.80757957 75.63656286 545.7906532 63.34185135 540 51 C536.31983587 51.52047083 534.29458797 52.19683181 531.65234375 54.81640625 C531.05325195 55.40736084 530.45416016 55.99831543 529.83691406 56.60717773 C529.21010742 57.25243408 528.58330078 57.89769043 527.9375 58.5625 C527.2784668 59.23289307 526.61943359 59.90328613 525.94042969 60.59399414 C519.23799549 67.55776178 513.54737397 75.105215 508 83 C507.0781614 84.28778648 506.15628672 85.57554712 505.234375 86.86328125 C463.56712259 145.70816097 436.49914145 214.88574151 413.1875 282.625 C412.9140979 283.41724976 412.6406958 284.20949951 412.35900879 285.02575684 C408.60156065 295.93786806 405.19091033 306.90997735 402 318 C401.42320751 319.94088906 400.84410633 321.88109497 400.26171875 323.8203125 C395.9567314 338.27669882 392.10419481 352.83597011 388.40641785 367.45698547 C387.43435851 371.29993322 386.44532255 375.13791806 385.44140625 378.97265625 C375.67569959 416.60156417 368.39000118 455.1125533 363.67041016 493.69433594 C360.91631118 515.95762956 360.91631118 515.95762956 353.5625 523.5 C343.29913793 529.5078217 330.90673812 527.63331372 319.8125 525.1875 C281.18885014 516.79678016 238.16908378 517.27148057 199.55737305 525.70751953 C190.38451149 527.66095368 181.00751775 529.11996158 172.375 524.5625 C164.93215902 519.27091206 162.93648162 512.58891338 161.45556641 503.93774414 C160.75310323 499.4078731 160.21277026 494.86576381 159.6875 490.3125 C156.82970665 466.6972129 152.97011315 443.26284358 148 420 C147.73429199 418.74687012 147.46858398 417.49374023 147.19482422 416.20263672 C143.47960678 398.71205965 139.50056882 381.30776429 135 364 C134.81872559 363.29713867 134.63745117 362.59427734 134.45068359 361.87011719 C129.51304084 342.76379556 123.8735471 323.8369384 118 305 C117.64454102 303.85837402 117.28908203 302.71674805 116.92285156 301.54052734 C101.94963341 253.69974117 83.96556545 206.90813092 61.91278076 161.86663818 C61.01766005 160.03611483 60.12749713 158.20326338 59.23876953 156.36962891 C45.48408068 128.05996405 30.12229986 100.42370911 10.41943359 75.77783203 C9.14727879 74.1844658 7.89458395 72.57560817 6.64453125 70.96484375 C2.41342999 65.60853159 -2.14308832 60.6621105 -6.9375 55.8125 C-7.50597656 55.23467773 -8.07445312 54.65685547 -8.66015625 54.06152344 C-11.33050546 51.00550272 -11.33050546 51.00550272 -15 50 Z " fill="#000000" transform="translate(267,112)"/>
<path d="M0 0 C10.83955836 4.9300901 15.96859218 13.9268428 20.2109375 24.609375 C24.98651838 39.11381368 23.02083162 56.0888627 17.03515625 69.9453125 C12.53220613 78.48096794 6.53646386 85.06076205 -2.76171875 88.16015625 C-11.54607611 89.11192499 -16.7619181 86.88002069 -23.88671875 82.03515625 C-32.71250618 74.09433937 -37.4046972 60.8705665 -38.2109375 49.2421875 C-38.73696393 34.88193983 -36.31490971 21.09702715 -27.76171875 9.16015625 C-19.68240709 0.57500942 -11.93436153 -3.62926129 0 0 Z " fill="#020202" transform="translate(424.76171875,757.83984375)"/>
<path d="M0 0 C7.60224141 2.8772372 12.92458924 9.13840539 16.75 16.1640625 C17.36508857 17.56723329 17.94554512 18.98584613 18.5 20.4140625 C18.87125 21.31253906 19.2425 22.21101562 19.625 23.13671875 C22.08277972 29.88707903 22.86115469 36.10661388 22.875 43.2265625 C22.87661133 44.01458252 22.87822266 44.80260254 22.87988281 45.61450195 C22.60490292 60.12580171 17.04999407 73.5777235 6.63671875 83.64453125 C1.58020426 87.83210175 -3.86214158 88.96197605 -10.33984375 88.6953125 C-16.9366762 87.83641207 -22.11346034 84.21404613 -26.5 79.4140625 C-30.7786602 73.52213698 -33.60790906 67.4185581 -35.5 60.4140625 C-35.70496094 59.76566406 -35.90992188 59.11726562 -36.12109375 58.44921875 C-39.92069738 44.79684986 -38.19242089 28.83374899 -31.921875 16.24609375 C-28.58525868 10.67755164 -24.8676019 6.10281094 -19.5 2.4140625 C-18.72398437 1.87652344 -17.94796875 1.33898437 -17.1484375 0.78515625 C-11.86912442 -1.94793946 -5.67610147 -1.33033628 0 0 Z " fill="#010101" transform="translate(648.5,757.5859375)"/>
</svg>
